<?xml version="1.0" encoding="utf-8"?>
<!-- Generator: Adobe Illustrator 27.5.0, SVG Export Plug-In . SVG Version: 6.00 Build 0)  -->
<svg version="1.1" xmlns="http://www.w3.org/2000/svg" xmlns:xlink="http://www.w3.org/1999/xlink" x="0px" y="0px"
	 viewBox="0 0 3710 3710" style="enable-background:new 0 0 3710 3710;" xml:space="preserve">
<g id="Background">
	<g>
		<g>
			<rect style="fill:#FFFFFF;" width="3710" height="3710"/>
		</g>
	</g>
</g>
<g id="Illustration">
	<g>
		<linearGradient id="SVGID_1_" gradientUnits="userSpaceOnUse" x1="3467.4915" y1="3264.8625" x2="1400.6016" y2="1456.3353">
			<stop  offset="0" style="stop-color:#DAE3FE"/>
			<stop  offset="1" style="stop-color:#E9EFFD"/>
		</linearGradient>
		<path style="fill:url(#SVGID_1_);" d="M3116.228,2325.614c-267.125,628.973-978.686,981.328-1595.752,886.281
			c-100.409-15.467-375.684-61.537-619.401-278.882c-469.173-418.406-569.509-1246.906-191.041-1830.769
			c275.458-424.95,769.244-665.84,1238.438-653.79c101.064,2.595,488.385,18.591,828.773,299.268
			c49.996,41.226,160.268,139.19,259.649,294.603C3270.258,1407.264,3290.317,1915.704,3116.228,2325.614z"/>
		<g>
			<g>
				<g style="opacity:0.3;">
					<path style="fill:#91B3FA;" d="M892.236,1091.339c-4.271,2.599-9.903,1.604-12.998-2.46
						c-6.772-8.886-13.257-18.201-19.277-27.68c-2.929-4.613-1.565-10.725,3.046-13.653c0.056-0.034,0.111-0.067,0.165-0.1
						c4.591-2.794,10.594-1.409,13.488,3.148c5.719,9.007,11.88,17.853,18.311,26.296c3.311,4.344,2.474,10.552-1.873,13.863
						C892.819,1090.966,892.53,1091.16,892.236,1091.339z M847.986,1017.402c-0.33,0.201-0.677,0.385-1.038,0.55
						c-4.967,2.272-10.838,0.087-13.11-4.88c-4.666-10.204-8.942-20.709-12.707-31.221c-1.843-5.143,0.819-10.783,5.974-12.65
						c5.143-1.841,10.805,0.837,12.646,5.976c3.58,9.992,7.642,19.971,12.079,29.668
						C853.938,1009.452,852.209,1014.832,847.986,1017.402z M821.117,935.56c-0.941,0.572-1.994,0.996-3.134,1.233
						c-5.349,1.107-10.585-2.328-11.694-7.677c-2.275-10.963-4.101-22.163-5.425-33.288c-0.642-5.425,3.234-10.34,8.652-10.991
						c5.423-0.645,10.346,3.229,10.991,8.652c1.257,10.564,2.991,21.197,5.151,31.61
						C826.531,929.307,824.589,933.447,821.117,935.56z M813.221,849.747c-1.555,0.946-3.388,1.474-5.342,1.433
						c-5.461-0.114-9.795-4.636-9.681-10.096c0.238-11.203,0.961-22.529,2.151-33.665c0.585-5.426,5.456-9.358,10.887-8.783
						c5.43,0.581,9.362,5.455,8.783,10.887c-1.131,10.575-1.82,21.333-2.042,31.979
						C817.902,845.008,816.012,848.049,813.221,849.747z M824.659,764.33c-2.18,1.327-4.869,1.814-7.539,1.146
						c-5.301-1.324-8.524-6.694-7.198-11.992c2.709-10.843,5.921-21.726,9.549-32.337c1.763-5.171,7.385-7.931,12.556-6.163
						c5.168,1.767,7.927,7.388,6.162,12.559c-3.45,10.087-6.502,20.429-9.077,30.734
						C828.456,760.907,826.805,763.025,824.659,764.33z M854.706,683.576c-2.824,1.718-6.443,1.985-9.61,0.385
						c-4.876-2.465-6.831-8.412-4.369-13.288c5.048-9.992,10.588-19.894,16.468-29.425c2.87-4.651,8.963-6.092,13.613-3.223
						c4.647,2.866,6.091,8.961,3.224,13.61c-5.587,9.058-10.851,18.462-15.647,27.957
						C857.521,681.302,856.229,682.649,854.706,683.576z M1152.072,475.041c-1.17,0.712-2.505,1.19-3.952,1.365
						c-10.55,1.274-21.187,3.025-31.612,5.209c-5.346,1.119-10.588-2.308-11.706-7.652c-1.121-5.347,2.305-10.589,7.653-11.708
						c10.98-2.299,22.182-4.146,33.292-5.489c5.424-0.655,10.351,3.212,11.005,8.634
						C1157.234,469.376,1155.284,473.087,1152.072,475.041z M901.871,611.536c-3.505,2.133-8.119,1.929-11.454-0.836
						c-4.207-3.487-4.79-9.721-1.305-13.927c7.143-8.621,14.75-17.036,22.608-25.011c3.851-3.872,10.095-3.941,13.988-0.105
						c3.891,3.833,3.937,10.096,0.104,13.989c-7.463,7.572-14.685,15.563-21.47,23.749
						C903.62,610.263,902.784,610.981,901.871,611.536z M1068.243,494.95c-0.557,0.339-1.156,0.631-1.794,0.861
						c-10.004,3.605-19.983,7.693-29.663,12.141c-4.965,2.28-10.838,0.105-13.119-4.857c-2.279-4.963-0.122-10.857,4.857-13.118
						c10.186-4.68,20.688-8.981,31.213-12.777c5.139-1.852,10.809,0.812,12.66,5.95
						C1074.019,487.649,1072.177,492.556,1068.243,494.95z M963.946,551.837c-4.264,2.595-9.888,1.608-12.987-2.445
						c-3.319-4.339-2.492-10.546,1.845-13.868c8.883-6.795,18.18-13.298,27.634-19.323c0.057-0.039,0.118-0.077,0.178-0.113
						c4.584-2.79,10.578-1.413,13.477,3.132c2.937,4.608,1.586,10.721-3.022,13.657c-8.978,5.726-17.807,11.904-26.247,18.361
						C964.538,551.454,964.245,551.655,963.946,551.837z"/>
					<path style="fill:#91B3FA;" d="M1221.495,472.986c-1.664,1.012-3.642,1.547-5.735,1.419c-5.09-0.312-10.271-0.52-15.402-0.627
						c-5.46-0.11-9.8-4.628-9.687-10.088c0.109-5.462,4.626-9.807,10.091-9.687c5.396,0.108,10.844,0.329,16.201,0.656
						c5.451,0.333,9.604,5.024,9.27,10.473C1226.029,468.495,1224.168,471.359,1221.495,472.986z"/>
				</g>
				<g style="opacity:0.3;">
					<path style="fill:#91B3FA;" d="M1491.412,607.432c-4.078,2.482-9.467,1.709-12.662-2.041
						c-3.305-3.882-6.749-7.76-10.233-11.524c-3.711-4.01-3.469-10.268,0.539-13.978c4.026-3.726,10.269-3.468,13.978,0.539
						c3.667,3.964,7.295,8.048,10.776,12.134c3.542,4.158,3.042,10.401-1.116,13.944
						C1492.286,606.855,1491.856,607.162,1491.412,607.432z"/>
					<path style="fill:#91B3FA;" d="M1398.952,1186.328c-3.887,2.366-7.831,4.675-11.827,6.926
						c-4.76,2.68-10.792,0.996-13.473-3.763c-2.681-4.759-0.984-10.821,3.761-13.474c9.223-5.196,18.215-10.755,26.823-16.59
						c4.531-3.06,10.671-1.885,13.736,2.635c3.067,4.524,1.886,10.675-2.636,13.739
						C1410.012,1179.412,1404.499,1182.953,1398.952,1186.328z M1339.984,1215.716c-0.472,0.287-0.976,0.54-1.508,0.75
						c-10.258,4.068-20.804,7.745-31.343,10.929c-5.228,1.58-10.748-1.378-12.328-6.604c-1.58-5.23,1.38-10.767,6.608-12.329
						c10.009-3.025,20.025-6.52,29.776-10.382c5.077-2.013,10.825,0.472,12.837,5.547
						C1345.828,1208.174,1344.025,1213.256,1339.984,1215.716z M1456.29,1143.678c-3.984,2.424-9.251,1.754-12.484-1.837
						c-3.655-4.063-3.324-10.315,0.735-13.971c7.768-6.989,15.341-14.406,22.51-22.053c3.743-3.979,9.997-4.184,13.981-0.448
						c3.985,3.739,4.185,9.999,0.448,13.983c-7.55,8.05-15.527,15.862-23.707,23.224
						C1457.307,1142.995,1456.808,1143.362,1456.29,1143.678z M1258.177,1238.098c-1.073,0.653-2.288,1.107-3.604,1.316
						c-10.891,1.712-21.988,2.979-32.979,3.766c-5.448,0.389-10.179-3.71-10.569-9.158c-0.391-5.452,3.705-10.183,9.159-10.571
						c10.436-0.748,20.973-1.95,31.317-3.577c5.396-0.851,10.459,2.839,11.306,8.234
						C1263.448,1232.185,1261.499,1236.076,1258.177,1238.098z M1512.615,1080.363c-3.267,1.989-7.541,1.975-10.862-0.377
						c-4.459-3.157-5.514-9.331-2.356-13.79c6.037-8.522,11.792-17.425,17.11-26.459c2.771-4.708,8.833-6.28,13.542-3.506
						c4.706,2.772,6.275,8.831,3.504,13.538c-5.597,9.512-11.657,18.885-18.013,27.86
						C1514.736,1078.765,1513.734,1079.683,1512.615,1080.363z M1553.684,1006.221c-2.612,1.59-5.923,1.949-8.961,0.682
						c-5.04-2.107-7.42-7.9-5.313-12.94c4.038-9.667,7.716-19.616,10.932-29.57c1.672-5.201,7.245-8.054,12.45-6.374
						c5.199,1.68,8.05,7.253,6.373,12.453c-3.385,10.476-7.255,20.945-11.505,31.117
						C1556.825,1003.591,1555.407,1005.173,1553.684,1006.221z M1577.612,924.889c-1.987,1.209-4.404,1.726-6.875,1.285
						c-5.377-0.957-8.96-6.094-8.001-11.472c1.84-10.324,3.266-20.834,4.234-31.246c0.506-5.437,5.319-9.438,10.765-8.931
						c5.438,0.508,9.437,5.325,8.931,10.766c-1.021,10.956-2.519,22.021-4.455,32.882
						C1581.693,921.081,1579.953,923.465,1577.612,924.889z M1583.233,840.281c-1.376,0.838-2.976,1.35-4.7,1.426
						c-5.457,0.241-10.074-3.987-10.315-9.444c-0.461-10.47-1.375-21.036-2.717-31.408c-0.7-5.417,3.129-10.38,8.537-11.08
						c5.419-0.702,10.379,3.123,11.079,8.54c1.414,10.926,2.377,22.054,2.863,33.074
						C1588.144,835.126,1586.215,838.466,1583.233,840.281z M1570.138,756.47c-0.774,0.471-1.627,0.841-2.545,1.092
						c-5.269,1.438-10.708-1.669-12.143-6.938c-2.752-10.084-5.97-20.184-9.57-30.023c-1.877-5.131,0.778-10.813,5.891-12.685
						c5.13-1.878,10.811,0.761,12.688,5.892c3.789,10.358,7.178,20.991,10.073,31.608
						C1575.719,749.767,1573.808,754.237,1570.138,756.47z M1538.971,677.637c-0.173,0.105-0.352,0.205-0.533,0.302
						c-4.83,2.55-10.814,0.702-13.363-4.129c-3.6-6.819-7.452-13.606-11.453-20.18c-1.448-2.38-2.922-4.739-4.413-7.074
						c-2.941-4.605-1.593-10.722,3.012-13.66c4.603-3.068,10.718-1.593,13.658,3.009c1.571,2.459,3.117,4.937,4.642,7.442
						c4.208,6.914,8.262,14.058,12.047,21.23C1545.022,669.224,1543.402,674.941,1538.971,677.637z"/>
					<path style="fill:#91B3FA;" d="M1173.214,1241.894c-1.68,1.023-3.678,1.556-5.786,1.418c-5.343-0.353-10.78-0.825-16.159-1.405
						c-5.432-0.584-9.362-5.461-8.776-10.891c0.586-5.431,5.455-9.363,10.891-8.776c5.11,0.549,10.274,0.998,15.347,1.334
						c5.448,0.357,9.576,5.067,9.217,10.519C1177.727,1237.433,1175.871,1240.277,1173.214,1241.894z"/>
				</g>
				<g>
					<path style="fill:#91B3FA;" d="M1124.975,1136.955c1.859,0.657,3.931,0.062,5.158-1.482l35.014-44.041
						c26.117,2.873,52.881,1.603,79.295-4.183l39.455,40.059c1.384,1.406,3.507,1.777,5.286,0.927l60.894-29.095
						c1.78-0.851,2.823-2.737,2.6-4.695l-6.379-55.864c21.096-16.916,38.899-36.939,53.071-59.065l56.262,0.427
						c1.972,0.015,3.736-1.223,4.393-3.082l22.484-63.632c0.657-1.861,0.062-3.932-1.482-5.159l-44.04-35.014
						c2.874-26.117,1.603-52.882-4.183-79.295l40.06-39.457c1.405-1.383,1.777-3.506,0.927-5.286l-29.096-60.894
						c-0.85-1.779-2.736-2.824-4.695-2.599l-55.865,6.378c-16.915-21.096-36.938-38.9-59.064-53.071l0.427-56.263
						c0.015-1.971-1.223-3.736-3.082-4.393l-63.632-22.484c-1.86-0.658-3.931-0.062-5.159,1.481l-35.014,44.041
						c-26.117-2.875-52.882-1.604-79.295,4.183l-39.456-40.06c-1.384-1.404-3.506-1.777-5.286-0.927l-60.894,29.097
						c-1.78,0.85-2.823,2.735-2.6,4.695l6.379,55.864c-21.097,16.914-38.9,36.939-53.072,59.065l-56.261-0.428
						c-1.972-0.016-3.737,1.223-4.394,3.082l-22.484,63.632c-0.657,1.859-0.062,3.931,1.481,5.159l44.04,35.014
						c-2.874,26.117-1.602,52.882,4.184,79.295l-40.06,39.456c-1.405,1.383-1.778,3.507-0.926,5.286l29.095,60.893
						c0.85,1.78,2.735,2.824,4.695,2.601l55.864-6.379c16.915,21.096,36.939,38.898,59.064,53.071l-0.427,56.262
						c-0.015,1.972,1.222,3.736,3.082,4.394L1124.975,1136.955z"/>
					<g>
						<path style="fill:#BDD0FB;" d="M1227.11,904.301c-28.248,17.191-65.676,11.543-87.418-14.637
							c-23.898-28.779-19.927-71.63,8.849-95.528c13.939-11.582,31.555-17.033,49.594-15.361
							c18.042,1.67,34.355,10.268,45.931,24.209c23.899,28.78,19.927,71.63-8.848,95.528
							C1232.623,900.666,1229.911,902.597,1227.11,904.301z M1164.93,801.828c-2.182,1.328-4.278,2.821-6.279,4.482
							c-22.063,18.321-25.105,51.18-6.785,73.242c18.323,22.064,51.18,25.121,73.244,6.786c22.063-18.321,25.105-51.18,6.786-73.242
							c-8.878-10.69-21.383-17.281-35.217-18.563C1185.434,793.493,1174.403,796.063,1164.93,801.828z"/>
					</g>
					<path style="fill:#BDD0FB;" d="M1279.232,987.278c-4.852,2.953-9.88,5.678-15.074,8.161l0,0
						c-1.634,0.782-3.283,1.536-4.942,2.266c-8.183,3.591-16.639,6.526-25.236,8.759c-0.117,0.031-0.234,0.061-0.351,0.092
						c-0.333,0.085-0.665,0.17-1,0.251c-0.649,0.164-1.3,0.32-1.949,0.476c-1.71,0.408-3.425-0.362-4.294-1.787
						c-0.211-0.346-0.371-0.733-0.47-1.148c-0.506-2.125,0.813-4.253,2.934-4.762c10.939-2.6,21.669-6.398,31.895-11.288
						c50.806-24.266,82.823-72.19,89.2-124.319c3.551-28.995-0.835-59.292-14.337-87.546c-2.366-4.955-4.966-9.755-7.784-14.381
						c-18.956-31.141-47.805-54.619-82.642-66.927c-40.016-14.141-83.145-11.851-121.437,6.446
						c-79.081,37.797-112.634,132.818-74.863,211.865c2.329,4.874,4.896,9.612,7.687,14.195
						c12.093,19.863,28.398,36.86,47.804,49.713c0.501,0.333,0.902,0.758,1.194,1.241c0.771,1.267,0.795,2.922-0.081,4.242
						c-1.213,1.819-3.659,2.326-5.485,1.113c-20.374-13.494-37.495-31.338-50.19-52.191c-2.93-4.811-5.624-9.784-8.07-14.898
						c-39.657-82.992-4.373-182.776,78.589-222.419c40.201-19.21,85.476-21.611,127.485-6.767
						c36.573,12.92,66.859,37.569,86.76,70.26c2.957,4.858,5.685,9.896,8.171,15.095c19.209,40.204,21.613,85.479,6.77,127.488
						C1336.592,937.088,1311.932,967.378,1279.232,987.278z"/>
				</g>
			</g>
			<g>
				<g style="opacity:0.3;">
					<path style="fill:#91B3FA;" d="M739.411,1489.468c-2.257,1.374-5.233,1.167-7.287-0.705
						c-3.835-3.491-7.617-7.146-11.238-10.864c-2.353-2.416-2.303-6.28,0.114-8.638c2.411-2.367,6.284-2.302,8.638,0.114
						c3.451,3.543,7.055,7.027,10.714,10.359c2.494,2.268,2.673,6.132,0.405,8.63
						C740.352,1488.804,739.898,1489.172,739.411,1489.468z"/>
					<path style="fill:#91B3FA;" d="M707.714,1454.775c-2.645,1.609-6.132,0.987-8.038-1.533
						c-5.393-7.117-10.481-14.594-15.121-22.218c-0.977-1.605-1.939-3.227-2.889-4.862c-1.692-2.923-0.478-6.643,2.217-8.354
						c2.919-1.693,6.656-0.698,8.35,2.216c0.907,1.564,1.826,3.115,2.759,4.649c4.426,7.272,9.279,14.403,14.419,21.191
						c2.039,2.691,1.51,6.519-1.177,8.559C708.062,1454.549,707.89,1454.668,707.714,1454.775z M675.893,1399.904
						c-0.247,0.15-0.509,0.289-0.78,0.405c-3.105,1.324-6.695-0.116-8.021-3.219c-4.255-9.954-7.93-20.26-10.919-30.627
						c-0.937-3.243,0.953-6.628,4.176-7.563c3.245-0.934,6.626,0.933,7.562,4.176c2.853,9.892,6.359,19.721,10.415,29.215
						C679.534,1395.119,678.446,1398.35,675.893,1399.904z M658.328,1338.957c-0.662,0.403-1.413,0.685-2.224,0.816
						c-3.332,0.526-6.459-1.754-6.985-5.086c-1.679-10.676-2.712-21.577-3.058-32.393c-0.11-3.376,2.529-6.19,5.911-6.301
						c3.37-0.109,6.192,2.538,6.301,5.907c0.331,10.316,1.311,20.705,2.917,30.887
						C661.585,1335.306,660.379,1337.708,658.328,1338.957z M656.284,1275.553c-1.081,0.658-2.373,0.984-3.727,0.864
						c-3.359-0.309-5.837-3.285-5.528-6.644c0.99-10.784,2.657-21.597,4.959-32.146c0.722-3.296,3.983-5.378,7.271-4.663
						c3.296,0.717,5.385,3.972,4.667,7.272c-2.196,10.052-3.787,20.372-4.73,30.652
						C659.013,1272.894,657.881,1274.581,656.284,1275.553z M669.787,1213.575c-1.509,0.918-3.404,1.178-5.202,0.547
						c-3.182-1.115-4.856-4.601-3.743-7.786c3.582-10.204,7.823-20.286,12.613-29.961c1.493-3.032,5.16-4.265,8.184-2.767
						c3.024,1.498,4.263,5.164,2.766,8.184c-4.57,9.234-8.618,18.849-12.031,28.587
						C671.888,1211.766,670.952,1212.867,669.787,1213.575z M697.92,1156.76c-1.954,1.189-4.503,1.224-6.542-0.118
						c-2.815-1.855-3.591-5.643-1.737-8.461c5.952-9.028,12.525-17.77,19.536-25.975c2.206-2.565,6.05-2.865,8.615-0.676
						c2.565,2.189,2.867,6.048,0.677,8.611c-6.687,7.827-12.951,16.157-18.625,24.764
						C699.33,1155.686,698.667,1156.306,697.92,1156.76z M739.08,1108.561c-2.446,1.488-5.681,1.09-7.681-1.101
						c-2.275-2.492-2.098-6.356,0.392-8.633c7.96-7.267,16.48-14.129,25.326-20.399c2.791-1.908,6.572-1.296,8.519,1.457
						c1.951,2.752,1.299,6.564-1.451,8.516c-8.442,5.976-16.568,12.521-24.157,19.45
						C739.729,1108.124,739.411,1108.359,739.08,1108.561z M819.698,1058.591c-0.301,0.183-0.624,0.345-0.967,0.477
						c-8.301,3.229-16.57,6.969-24.58,11.118c-1.217,0.622-2.404,1.247-3.581,1.885c-2.973,1.599-6.676,0.494-8.278-2.476
						c-1.61-2.974-0.529-6.774,2.472-8.279c1.258-0.675,2.517-1.343,3.793-1.995c8.37-4.332,17.039-8.253,25.744-11.637
						c3.146-1.223,6.684,0.333,7.906,3.478C823.299,1053.962,822.183,1057.079,819.698,1058.591z"/>
				</g>
				<g style="opacity:0.3;">
					<path style="fill:#91B3FA;" d="M1050.042,1517.148c-2.849,1.734-6.574,0.857-8.351-1.978c-1.79-2.856-0.927-6.63,1.933-8.419
						c8.608-5.392,16.96-11.355,24.823-17.725c2.624-2.086,6.469-1.724,8.594,0.901c2.125,2.624,1.717,6.47-0.902,8.594
						c-8.25,6.675-17.002,12.931-26.025,18.583C1050.091,1517.119,1050.065,1517.134,1050.042,1517.148z M1022.608,1532.119
						c-0.189,0.115-0.381,0.218-0.584,0.313c-9.622,4.529-19.619,8.518-29.709,11.858c-3.205,1.057-6.658-0.676-7.717-3.879
						c-1.065-3.207,0.695-6.66,3.876-7.722c9.63-3.186,19.167-6.993,28.352-11.311c3.051-1.437,6.691-0.126,8.126,2.926
						C1026.294,1527.159,1025.238,1530.519,1022.608,1532.119z M1098.505,1477.879c-2.314,1.408-5.371,1.146-7.415-0.823
						c-2.425-2.337-2.498-6.204-0.156-8.634c7.05-7.321,13.714-15.127,19.806-23.214c2.046-2.691,5.862-3.232,8.555-1.198
						c2.693,2.027,3.232,5.861,1.203,8.556c-6.387,8.475-13.375,16.66-20.768,24.33
						C1099.355,1477.285,1098.943,1477.612,1098.505,1477.879z M963.345,1551.69c-0.593,0.361-1.259,0.627-1.981,0.773
						c-10.436,2.084-21.107,3.543-31.712,4.333c-3.365,0.253-6.296-2.272-6.549-5.638c-0.247-3.355,2.277-6.288,5.637-6.545
						c10.113-0.756,20.283-2.148,30.235-4.133c3.308-0.659,6.527,1.488,7.186,4.796
						C966.675,1547.861,965.475,1550.393,963.345,1551.69z M1136.033,1428.062c-1.847,1.124-4.237,1.231-6.237,0.074
						c-2.925-1.69-3.922-5.428-2.234-8.347c5.077-8.774,9.667-17.951,13.642-27.283c1.323-3.11,4.914-4.548,8.018-3.224
						c3.103,1.324,4.548,4.914,3.224,8.017c-4.173,9.782-8.984,19.406-14.303,28.608
						C1137.612,1426.822,1136.877,1427.548,1136.033,1428.062z M1160.517,1370.695c-1.414,0.861-3.168,1.146-4.88,0.651
						c-3.24-0.94-5.107-4.329-4.167-7.569c2.831-9.761,5.095-19.778,6.729-29.767c0.545-3.334,3.689-5.591,7.015-5.044
						c3.33,0.544,5.585,3.682,5.041,7.01c-1.712,10.476-4.082,20.977-7.049,31.205
						C1162.764,1368.706,1161.776,1369.929,1160.517,1370.695z M1170.554,1309.109c-0.994,0.605-2.168,0.935-3.42,0.881
						c-3.371-0.134-5.994-2.98-5.857-6.352c0.419-10.151,0.212-20.417-0.612-30.509c-0.269-3.356,2.232-6.31,5.594-6.581
						c3.364-0.273,6.31,2.228,6.585,5.594c0.859,10.581,1.079,21.349,0.645,31.997
						C1173.401,1306.259,1172.24,1308.082,1170.554,1309.109z"/>
					<path style="fill:#91B3FA;" d="M900.828,1556.348c-1.007,0.613-2.2,0.941-3.466,0.88c-5.223-0.251-10.461-0.659-15.572-1.208
						c-3.353-0.362-5.783-3.374-5.422-6.729c0.37-3.347,3.375-5.776,6.729-5.422c4.873,0.526,9.872,0.913,14.856,1.156
						c3.37,0.162,5.97,3.029,5.806,6.396C903.655,1553.524,902.502,1555.329,900.828,1556.348z"/>
				</g>
				<g>
					<path style="fill:#91B3FA;" d="M864.139,1486.293c1.244,0.439,2.63,0.042,3.451-0.991l23.43-29.47
						c17.476,1.923,35.386,1.073,53.061-2.799l26.402,26.805c0.926,0.941,2.346,1.189,3.537,0.621l40.747-19.469
						c1.191-0.569,1.889-1.831,1.74-3.142l-4.269-37.382c14.117-11.319,26.03-24.718,35.513-39.523l37.648,0.286
						c1.319,0.009,2.5-0.819,2.94-2.063l15.045-42.579c0.44-1.245,0.042-2.631-0.992-3.452l-29.47-23.429
						c1.923-17.477,1.073-35.386-2.799-53.061l26.806-26.402c0.94-0.926,1.189-2.346,0.621-3.537l-19.47-40.747
						c-0.569-1.191-1.831-1.89-3.142-1.739l-37.382,4.268c-11.319-14.117-24.718-26.03-39.523-35.513l0.286-37.649
						c0.01-1.319-0.818-2.5-2.062-2.939l-42.58-15.045c-1.244-0.44-2.63-0.041-3.451,0.991l-23.43,29.471
						c-17.476-1.924-35.386-1.073-53.061,2.799l-26.403-26.807c-0.926-0.94-2.346-1.19-3.537-0.621l-40.747,19.47
						c-1.191,0.569-1.889,1.83-1.739,3.142l4.269,37.382c-14.117,11.319-26.03,24.718-35.514,39.523l-37.647-0.286
						c-1.32-0.01-2.501,0.819-2.94,2.063l-15.045,42.579c-0.439,1.244-0.042,2.631,0.992,3.452l29.469,23.43
						c-1.923,17.477-1.072,35.386,2.8,53.061l-26.807,26.402c-0.94,0.925-1.189,2.346-0.619,3.537l19.469,40.747
						c0.57,1.191,1.831,1.889,3.142,1.74l37.382-4.268c11.319,14.116,24.717,26.029,39.522,35.513l-0.285,37.648
						c-0.01,1.32,0.818,2.5,2.063,2.94L864.139,1486.293z"/>
					<g>
						<path style="fill:#BDD0FB;" d="M932.851,1331.346c-8.418,5.123-18.217,7.406-28.207,6.482
							c-12.289-1.139-23.4-6.997-31.285-16.494c-16.275-19.594-13.573-48.782,6.026-65.067
							c19.657-16.265,48.797-13.571,65.073,6.029c7.888,9.496,11.604,21.495,10.463,33.781
							c-1.137,12.292-6.993,23.405-16.494,31.289C936.651,1328.838,934.786,1330.168,932.851,1331.346z M891.253,1262.767
							c-1.404,0.855-2.761,1.82-4.064,2.899c-14.415,11.978-16.403,33.447-4.43,47.865c5.799,6.981,13.973,11.295,23.01,12.129
							c9.044,0.837,17.862-1.903,24.854-7.695l0,0c6.984-5.801,11.294-13.976,12.131-23.013c0.837-9.044-1.897-17.869-7.699-24.855
							C924.166,1256.983,905.407,1254.153,891.253,1262.767z"/>
					</g>
					<path style="fill:#BDD0FB;" d="M969.056,1389.149c-3.302,2.01-6.733,3.866-10.291,5.571
						c-7.068,3.379-14.486,6.043-22.069,7.921c-0.341,0.082-0.683,0.164-1.024,0.246c-2.641,0.63-5.288-0.56-6.631-2.76
						c-0.326-0.535-0.573-1.131-0.726-1.772c-0.781-3.282,1.258-6.562,4.531-7.353c7.096-1.686,14.042-4.146,20.646-7.306
						l0.003-0.002c0.363-0.172,0.725-0.351,1.083-0.527c15.563-7.62,28.636-18.831,38.405-32.597
						c5.302-7.473,9.628-15.707,12.839-24.54c0.026-0.072,0.052-0.143,0.079-0.215c0.078-0.223,0.159-0.439,0.234-0.66
						c9.151-25.906,7.671-53.826-4.175-78.615c-1.531-3.21-3.214-6.313-5.037-9.31c-12.272-20.159-30.949-35.358-53.504-43.33
						c-25.906-9.152-53.823-7.666-78.61,4.178c-24.768,11.847-43.483,32.636-52.641,58.539c-9.152,25.905-7.671,53.826,4.175,78.615
						c1.505,3.155,3.169,6.222,4.973,9.188c7.831,12.862,18.384,23.863,30.947,32.182c0.774,0.514,1.394,1.17,1.844,1.916
						c1.191,1.957,1.227,4.512-0.124,6.549c-1.871,2.807-5.651,3.585-8.47,1.718c-14.056-9.31-25.867-21.62-34.628-36.003
						c-2.022-3.323-3.882-6.751-5.568-10.279c-13.253-27.739-14.911-58.974-4.669-87.959c10.242-28.979,31.131-52.251,58.889-65.491
						c27.735-13.254,58.968-14.915,87.953-4.669c25.233,8.912,46.127,25.918,59.857,48.473c2.038,3.348,3.923,6.824,5.637,10.411
						C1038.64,1294.97,1018.84,1358.852,969.056,1389.149z"/>
				</g>
			</g>
		</g>
		<g>
			
				<linearGradient id="SVGID_00000070827307497135208910000017123433143385407675_" gradientUnits="userSpaceOnUse" x1="1992.0184" y1="667.8141" x2="1992.0184" y2="3768.7817">
				<stop  offset="0" style="stop-color:#4F52FF"/>
				<stop  offset="1" style="stop-color:#4042E2"/>
			</linearGradient>
			<path style="fill:url(#SVGID_00000070827307497135208910000017123433143385407675_);" d="M2680.192,899.007
				c0-74.05-60.029-134.079-134.079-134.079H1437.924c-74.05,0-134.079,60.029-134.079,134.079v2102.775
				c0,74.05,60.029,134.079,134.079,134.079h1108.189c74.05,0,134.079-60.029,134.079-134.079V899.007z"/>
			
				<linearGradient id="SVGID_00000039121836886748725000000017083229921946858395_" gradientUnits="userSpaceOnUse" x1="1845.4141" y1="494.4238" x2="1915.7351" y2="1448.7771">
				<stop  offset="0" style="stop-color:#09005D"/>
				<stop  offset="1" style="stop-color:#1A0F91"/>
			</linearGradient>
			<path style="opacity:0.43;fill:url(#SVGID_00000039121836886748725000000017083229921946858395_);" d="M2603.17,1875.141
				c0-13.923-11.288-25.21-25.212-25.21H1396.032c-13.924,0-25.212,11.287-25.212,25.21v1081.466
				c0,13.923,11.288,25.21,25.212,25.21h1181.926c13.924,0,25.212-11.287,25.212-25.21V1875.141z"/>
			
				<linearGradient id="SVGID_00000150805462214821848200000005319015724333651085_" gradientUnits="userSpaceOnUse" x1="3935.4385" y1="2034.7722" x2="2518.9578" y2="2014.679">
				<stop  offset="0" style="stop-color:#09005D"/>
				<stop  offset="1" style="stop-color:#1A0F91"/>
			</linearGradient>
			
				<rect x="2663.448" y="1006.039" style="fill:url(#SVGID_00000150805462214821848200000005319015724333651085_);" width="90.417" height="2022.661"/>
			<path style="fill:#7D97F4;" d="M1430.74,1702.585c-32.227,0-59.919-25.564-59.919-57.788v-570.696
				c0-32.227,27.692-58.016,59.919-58.016h1113.887c32.227,0,58.543,25.789,58.543,58.016v570.696
				c0,32.224-26.316,57.788-58.543,57.788H1430.74z"/>
			
				<linearGradient id="SVGID_00000078750597547570244820000013898203296593263751_" gradientUnits="userSpaceOnUse" x1="2030.9938" y1="262.5323" x2="1886.4248" y2="3866.3774">
				<stop  offset="0" style="stop-color:#09005D"/>
				<stop  offset="1" style="stop-color:#1A0F91"/>
			</linearGradient>
			<path style="fill:url(#SVGID_00000078750597547570244820000013898203296593263751_);" d="M2569.682,1073.639
				c0-13.291-10.774-24.065-24.065-24.065H1428.374c-13.291,0-24.065,10.774-24.065,24.065v571.393
				c0,13.291,10.774,24.065,24.065,24.065h1117.243c13.291,0,24.065-10.774,24.065-24.065V1073.639z"/>
			
				<linearGradient id="SVGID_00000056395774500536860200000007504781753114142140_" gradientUnits="userSpaceOnUse" x1="3427.4961" y1="1796.9528" x2="1694.5931" y2="2449.9309">
				<stop  offset="0" style="stop-color:#4F52FF"/>
				<stop  offset="1" style="stop-color:#4042E2"/>
			</linearGradient>
			<path style="fill:url(#SVGID_00000056395774500536860200000007504781753114142140_);" d="M2924.653,3003.584
				c0,52.71-42.73,95.44-95.44,95.44l0,0c-52.71,0-95.44-42.73-95.44-95.44V1041.202c0-52.71,42.73-95.44,95.44-95.44l0,0
				c52.71,0,95.44,42.73,95.44,95.44V3003.584z"/>
			
				<linearGradient id="SVGID_00000106831851685657388710000003875607945859745425_" gradientUnits="userSpaceOnUse" x1="1571.7471" y1="883.8092" x2="2382.1509" y2="883.8092">
				<stop  offset="0" style="stop-color:#09005D"/>
				<stop  offset="1" style="stop-color:#1A0F91"/>
			</linearGradient>
			<path style="fill:url(#SVGID_00000106831851685657388710000003875607945859745425_);" d="M2382.151,884.681
				c0,17.088-13.853,30.941-30.941,30.941h-748.521c-17.089,0-30.941-13.853-30.941-30.941v-1.744
				c0-17.088,13.853-30.941,30.941-30.941h748.521c17.088,0,30.941,13.853,30.941,30.941V884.681z"/>
			<g>
				
					<linearGradient id="SVGID_00000018934319884096898280000008679746489634002338_" gradientUnits="userSpaceOnUse" x1="1544.8623" y1="1602.7589" x2="1554.908" y2="2667.616">
					<stop  offset="0" style="stop-color:#A737D5"/>
					<stop  offset="1" style="stop-color:#EF497A"/>
				</linearGradient>
				<path style="fill:url(#SVGID_00000018934319884096898280000008679746489634002338_);" d="M1703.609,1965.463
					c0,37.54-30.432,67.972-67.972,67.972h-174.742c-37.54,0-67.972-30.432-67.972-67.972v-3.865
					c0-37.54,30.432-67.972,67.972-67.972h174.742c37.54,0,67.972,30.432,67.972,67.972V1965.463z"/>
				
					<linearGradient id="SVGID_00000170999602368830127190000012246225293025131165_" gradientUnits="userSpaceOnUse" x1="1734.1895" y1="1331.1404" x2="2745.3047" y2="3862.8115">
					<stop  offset="0" style="stop-color:#FF928E"/>
					<stop  offset="1" style="stop-color:#FE7062"/>
				</linearGradient>
				<path style="fill:url(#SVGID_00000170999602368830127190000012246225293025131165_);" d="M2142.101,1965.463
					c0,37.54-30.432,67.972-67.972,67.972h-174.743c-37.54,0-67.972-30.432-67.972-67.972v-3.865
					c0-37.54,30.432-67.972,67.972-67.972h174.743c37.54,0,67.972,30.432,67.972,67.972V1965.463z"/>
				
					<linearGradient id="SVGID_00000008134247507905101840000004600371556087109311_" gradientUnits="userSpaceOnUse" x1="2112.3594" y1="1180.1045" x2="3123.4746" y2="3711.7756">
					<stop  offset="0" style="stop-color:#FF928E"/>
					<stop  offset="1" style="stop-color:#FE7062"/>
				</linearGradient>
				<path style="fill:url(#SVGID_00000008134247507905101840000004600371556087109311_);" d="M2580.592,1965.463
					c0,37.54-30.432,67.972-67.972,67.972h-174.743c-37.54,0-67.972-30.432-67.972-67.972v-3.865
					c0-37.54,30.432-67.972,67.972-67.972h174.743c37.54,0,67.972,30.432,67.972,67.972V1965.463z"/>
			</g>
			<g>
				
					<linearGradient id="SVGID_00000018221805880601692070000018333251172559459721_" gradientUnits="userSpaceOnUse" x1="1542.8517" y1="1602.7775" x2="1552.8973" y2="2667.6353">
					<stop  offset="0" style="stop-color:#A737D5"/>
					<stop  offset="1" style="stop-color:#EF497A"/>
				</linearGradient>
				<path style="fill:url(#SVGID_00000018221805880601692070000018333251172559459721_);" d="M1703.609,2178.615
					c0,37.54-30.432,67.972-67.972,67.972h-174.742c-37.54,0-67.972-30.432-67.972-67.972v-3.865
					c0-37.54,30.432-67.972,67.972-67.972h174.742c37.54,0,67.972,30.432,67.972,67.972V2178.615z"/>
				
					<linearGradient id="SVGID_00000100341981033172701410000018037045360937638067_" gradientUnits="userSpaceOnUse" x1="1660.77" y1="1360.4613" x2="2671.8857" y2="3892.1335">
					<stop  offset="0" style="stop-color:#FF928E"/>
					<stop  offset="1" style="stop-color:#FE7062"/>
				</linearGradient>
				<path style="fill:url(#SVGID_00000100341981033172701410000018037045360937638067_);" d="M2142.101,2178.615
					c0,37.54-30.432,67.972-67.972,67.972h-174.743c-37.54,0-67.972-30.432-67.972-67.972v-3.865
					c0-37.54,30.432-67.972,67.972-67.972h174.743c37.54,0,67.972,30.432,67.972,67.972V2178.615z"/>
				
					<linearGradient id="SVGID_00000161609732817080246910000017308990014069430201_" gradientUnits="userSpaceOnUse" x1="2038.9407" y1="1209.4272" x2="3050.0564" y2="3741.0996">
					<stop  offset="0" style="stop-color:#FF928E"/>
					<stop  offset="1" style="stop-color:#FE7062"/>
				</linearGradient>
				<path style="fill:url(#SVGID_00000161609732817080246910000017308990014069430201_);" d="M2580.592,2178.615
					c0,37.54-30.432,67.972-67.972,67.972h-174.743c-37.54,0-67.972-30.432-67.972-67.972v-3.865
					c0-37.54,30.432-67.972,67.972-67.972h174.743c37.54,0,67.972,30.432,67.972,67.972V2178.615z"/>
			</g>
			<g>
				
					<linearGradient id="SVGID_00000097473598188471619110000006840261772150159286_" gradientUnits="userSpaceOnUse" x1="1540.8411" y1="1602.7963" x2="1550.8866" y2="2667.6541">
					<stop  offset="0" style="stop-color:#A737D5"/>
					<stop  offset="1" style="stop-color:#EF497A"/>
				</linearGradient>
				<path style="fill:url(#SVGID_00000097473598188471619110000006840261772150159286_);" d="M1703.609,2391.766
					c0,37.54-30.432,67.972-67.972,67.972h-174.742c-37.54,0-67.972-30.432-67.972-67.972v-3.865
					c0-37.54,30.432-67.972,67.972-67.972h174.742c37.54,0,67.972,30.432,67.972,67.972V2391.766z"/>
				
					<linearGradient id="SVGID_00000173877911164468221820000002938315364975864448_" gradientUnits="userSpaceOnUse" x1="1587.3514" y1="1389.7843" x2="2598.467" y2="3921.4565">
					<stop  offset="0" style="stop-color:#FF928E"/>
					<stop  offset="1" style="stop-color:#FE7062"/>
				</linearGradient>
				<path style="fill:url(#SVGID_00000173877911164468221820000002938315364975864448_);" d="M2142.101,2391.766
					c0,37.54-30.432,67.972-67.972,67.972h-174.743c-37.54,0-67.972-30.432-67.972-67.972v-3.865
					c0-37.54,30.432-67.972,67.972-67.972h174.743c37.54,0,67.972,30.432,67.972,67.972V2391.766z"/>
				
					<linearGradient id="SVGID_00000079467355222294371020000005364125429251603128_" gradientUnits="userSpaceOnUse" x1="1965.5214" y1="1238.7483" x2="2976.6372" y2="3770.4207">
					<stop  offset="0" style="stop-color:#FF928E"/>
					<stop  offset="1" style="stop-color:#FE7062"/>
				</linearGradient>
				<path style="fill:url(#SVGID_00000079467355222294371020000005364125429251603128_);" d="M2580.592,2391.766
					c0,37.54-30.432,67.972-67.972,67.972h-174.743c-37.54,0-67.972-30.432-67.972-67.972v-3.865
					c0-37.54,30.432-67.972,67.972-67.972h174.743c37.54,0,67.972,30.432,67.972,67.972V2391.766z"/>
			</g>
			<g>
				
					<linearGradient id="SVGID_00000043415076805752253250000017262111792987225489_" gradientUnits="userSpaceOnUse" x1="1540.5405" y1="1602.7998" x2="1550.5862" y2="2667.6575">
					<stop  offset="0" style="stop-color:#A737D5"/>
					<stop  offset="1" style="stop-color:#EF497A"/>
				</linearGradient>
				<path style="fill:url(#SVGID_00000043415076805752253250000017262111792987225489_);" d="M1705.698,2605.758
					c0,37.54-30.432,67.972-67.972,67.972h-175.492c-37.54,0-67.972-30.432-67.972-67.972v-4.704
					c0-37.54,30.432-67.972,67.972-67.972h175.492c37.54,0,67.972,30.432,67.972,67.972V2605.758z"/>
				
					<linearGradient id="SVGID_00000072990217211305260000000010642964026222659490_" gradientUnits="userSpaceOnUse" x1="1515.4366" y1="1418.5056" x2="2526.5515" y2="3950.176">
					<stop  offset="0" style="stop-color:#FF928E"/>
					<stop  offset="1" style="stop-color:#FE7062"/>
				</linearGradient>
				<path style="fill:url(#SVGID_00000072990217211305260000000010642964026222659490_);" d="M2144.388,2605.758
					c0,37.54-30.432,67.972-67.972,67.972h-175.493c-37.54,0-67.972-30.432-67.972-67.972v-4.704
					c0-37.54,30.432-67.972,67.972-67.972h175.493c37.54,0,67.972,30.432,67.972,67.972V2605.758z"/>
				
					<linearGradient id="SVGID_00000008144561082903734440000003903217840517830541_" gradientUnits="userSpaceOnUse" x1="1890.8894" y1="1268.5554" x2="2902.0046" y2="3800.2263">
					<stop  offset="0" style="stop-color:#FF928E"/>
					<stop  offset="1" style="stop-color:#FE7062"/>
				</linearGradient>
				<path style="fill:url(#SVGID_00000008144561082903734440000003903217840517830541_);" d="M2579.729,2605.758
					c0,37.54-30.432,67.972-67.972,67.972h-175.492c-37.54,0-67.972-30.432-67.972-67.972v-4.704
					c0-37.54,30.432-67.972,67.972-67.972h175.492c37.54,0,67.972,30.432,67.972,67.972V2605.758z"/>
			</g>
			<g>
				
					<linearGradient id="SVGID_00000036945631483187938100000008621887282099994013_" gradientUnits="userSpaceOnUse" x1="1394.2618" y1="2804.3323" x2="1705.6981" y2="2804.3323">
					<stop  offset="0" style="stop-color:#CB236D"/>
					<stop  offset="1" style="stop-color:#4C246D"/>
				</linearGradient>
				<path style="fill:url(#SVGID_00000036945631483187938100000008621887282099994013_);" d="M1705.698,2806.684
					c0,37.54-30.432,67.972-67.972,67.972h-175.492c-37.54,0-67.972-30.432-67.972-67.972v-4.704
					c0-37.54,30.432-67.972,67.972-67.972h175.492c37.54,0,67.972,30.432,67.972,67.972V2806.684z"/>
				
					<linearGradient id="SVGID_00000172433633483490100550000011322379957163943593_" gradientUnits="userSpaceOnUse" x1="1445.9382" y1="1446.2631" x2="2457.0522" y2="3977.9312">
					<stop  offset="0" style="stop-color:#FF928E"/>
					<stop  offset="1" style="stop-color:#FE7062"/>
				</linearGradient>
				<path style="fill:url(#SVGID_00000172433633483490100550000011322379957163943593_);" d="M2141.039,2803.336
					c0,37.54-30.432,67.972-67.972,67.972h-172.143c-37.54,0-67.972-30.432-67.972-67.972v-4.705
					c0-37.54,30.432-67.972,67.972-67.972h172.143c37.54,0,67.972,30.432,67.972,67.972V2803.336z"/>
				<path style="fill:#91B3FA;" d="M2579.729,2806.684c0,37.54-30.432,67.972-67.972,67.972h-175.492
					c-37.54,0-67.972-30.432-67.972-67.972v-4.704c0-37.54,30.432-67.972,67.972-67.972h175.492
					c37.54,0,67.972,30.432,67.972,67.972V2806.684z"/>
			</g>
			<path style="fill:#FFFFFF;" d="M2352.34,484.582c-1.874-0.717-3.95-0.203-5.288,1.293l-52.247,58.366l-91.393-80.69
				c-1.268-1.143-2.904-0.013-4.612-0.013h-6.581c-1.629,0-3.207-1.186-4.452-0.135l-95.301,79.554
				c-2.637,2.226-6.512,1.721-9.074-0.591l-88.857-78.595c-1.268-1.143-2.915-0.233-4.623-0.233h-6.583
				c-1.629,0-3.205-1.187-4.45-0.138l-96.361,80.397c-2.069,1.744-5.109,1.253-7.119-0.56l-91.281-82.544
				c-0.329-0.296-0.756-0.57-1.199-0.57l-99.299,87.642c-1.147,1.013-2.811,1.162-4.146,0.416
				c-10.194-5.704-53.043-29.901-81.535-49.154c-1.104-0.747-2.773-0.829-3.95-0.203c-1.177,0.626-2.151,1.843-2.151,3.177v383.168
				c0,2.533,2.535,3.665,5.067,3.665h754.051c2.531,0,4.403-1.132,4.403-3.665V489.103
				C2355.361,487.097,2354.213,485.299,2352.34,484.582z"/>
			<path style="fill:#BDD0FB;" d="M2314.286,646.519c0,5.221-4.232,9.455-9.454,9.455h-661.801c-5.222,0-9.455-4.233-9.455-9.455
				V644.8c0-5.221,4.233-9.454,9.455-9.454h661.801c5.221,0,9.454,4.233,9.454,9.454V646.519z"/>
			<path style="fill:#BDD0FB;" d="M2314.286,729.029c0,5.222-4.232,9.455-9.454,9.455h-661.801c-5.222,0-9.455-4.233-9.455-9.455
				v-1.719c0-5.221,4.233-9.455,9.455-9.455h661.801c5.221,0,9.454,4.233,9.454,9.455V729.029z"/>
			<g>
				<path style="fill:#FFFFFF;" d="M1563.444,1163.841c9.243-1.68,22.06-2.941,39.496-2.941c18.907,0,32.774,3.991,41.807,11.553
					c8.403,6.935,13.864,18.069,13.864,31.303c0,13.446-4.2,24.581-12.184,32.143c-10.295,10.295-26.47,15.128-44.749,15.128
					c-4.83,0-9.243-0.212-12.606-0.84v53.361h-25.63V1163.841z M1589.074,1229.807c3.151,0.84,7.354,1.052,12.606,1.052
					c19.328,0,31.094-9.454,31.094-26.051c0-15.757-10.925-24.162-28.783-24.162c-7.141,0-12.184,0.631-14.916,1.262V1229.807z"/>
				<path style="fill:#FFFFFF;" d="M1694.34,1263.421l-12.184,40.127h-26.681l45.379-141.599h32.983l46.008,141.599h-27.731
					l-12.815-40.127H1694.34z M1734.886,1243.883l-11.134-34.875c-2.73-8.612-5.04-18.276-7.142-26.47h-0.421
					c-2.101,8.194-4.2,18.067-6.723,26.47l-10.923,34.875H1734.886z"/>
				<path style="fill:#FFFFFF;" d="M1813.264,1303.548v-59.034l-44.749-82.565h29.411l17.017,36.345
					c4.833,10.504,8.403,18.488,12.187,28.152h0.419c3.572-9.033,7.563-17.858,12.396-28.152l17.018-36.345h29.202l-47.059,81.934
					v59.665H1813.264z"/>
				<path style="fill:#FFFFFF;" d="M2018.119,1245.775c-0.84-18.279-1.892-40.337-1.68-59.455h-0.63
					c-4.621,17.227-10.504,36.345-16.808,54.203l-20.587,61.345h-19.959l-18.907-60.505c-5.461-18.067-10.504-37.395-14.286-55.043
					h-0.421c-0.63,18.488-1.471,40.967-2.52,60.295l-3.151,56.933h-24.162l9.455-141.599h34.032l18.488,56.935
					c5.043,16.596,9.455,33.402,13.027,49.158h0.628c3.784-15.335,8.615-32.771,14.076-49.37l19.538-56.723h33.614l8.194,141.599
					h-25.208L2018.119,1245.775z"/>
				<path style="fill:#FFFFFF;" d="M2151.548,1240.732h-53.361v41.598h59.662v21.217h-85.504v-141.599h82.353v21.22h-56.512v36.555
					h53.361V1240.732z"/>
				<path style="fill:#FFFFFF;" d="M2180.555,1303.548v-141.599h29.411l36.555,60.716c9.455,15.756,17.649,32.143,24.162,47.478
					h0.419c-1.68-18.907-2.311-37.183-2.311-58.823v-49.372h23.949v141.599h-26.682l-36.973-62.185
					c-9.034-15.547-18.488-32.983-25.421-48.951l-0.63,0.212c1.049,18.276,1.261,36.974,1.261,60.293v50.631H2180.555z"/>
				<path style="fill:#FFFFFF;" d="M2349.692,1183.588h-40.337v-21.639h106.933v21.639h-40.755v119.96h-25.842V1183.588z"/>
				<path style="fill:#FFFFFF;" d="M1519.84,1515.562l-12.184,40.127h-26.682l45.379-141.599h32.983l46.007,141.599h-27.731
					l-12.815-40.127H1519.84z M1560.387,1496.024l-11.135-34.875c-2.73-8.612-5.04-18.276-7.142-26.47h-0.421
					c-2.101,8.193-4.2,18.067-6.723,26.47l-10.923,34.875H1560.387z"/>
				<path style="fill:#FFFFFF;" d="M1625.11,1415.981c9.243-1.68,22.06-2.941,39.496-2.941c18.907,0,32.774,3.991,41.807,11.554
					c8.403,6.935,13.864,18.069,13.864,31.303c0,13.446-4.2,24.581-12.184,32.143c-10.295,10.295-26.47,15.128-44.749,15.128
					c-4.831,0-9.243-0.212-12.606-0.84v53.361h-25.63V1415.981z M1650.739,1481.948c3.151,0.84,7.353,1.052,12.606,1.052
					c19.328,0,31.094-9.455,31.094-26.051c0-15.756-10.925-24.162-28.783-24.162c-7.142,0-12.184,0.63-14.916,1.261V1481.948z"/>
				<path style="fill:#FFFFFF;" d="M1742.563,1415.981c9.243-1.68,22.06-2.941,39.497-2.941c18.907,0,32.774,3.991,41.807,11.554
					c8.403,6.935,13.864,18.069,13.864,31.303c0,13.446-4.2,24.581-12.184,32.143c-10.295,10.295-26.47,15.128-44.749,15.128
					c-4.83,0-9.243-0.212-12.606-0.84v53.361h-25.63V1415.981z M1768.192,1481.948c3.151,0.84,7.354,1.052,12.606,1.052
					c19.328,0,31.094-9.455,31.094-26.051c0-15.756-10.925-24.162-28.783-24.162c-7.141,0-12.184,0.63-14.916,1.261V1481.948z"/>
				<path style="fill:#FFFFFF;" d="M1860.018,1415.981c9.664-1.68,24.159-2.941,39.076-2.941c20.38,0,34.244,3.363,43.699,11.345
					c7.772,6.513,12.184,16.387,12.184,28.362c0,18.279-12.393,30.672-25.629,35.506v0.63c10.083,3.781,16.175,13.655,19.747,27.31
					c4.412,17.648,8.193,34.035,11.135,39.496h-26.682c-2.099-4.203-5.461-15.756-9.452-33.405
					c-3.993-18.485-10.716-24.368-25.42-24.789h-13.027v58.194h-25.63V1415.981z M1885.648,1478.588h15.338
					c17.436,0,28.362-9.245,28.362-23.319c0-15.547-10.926-22.691-27.731-22.691c-8.194,0-13.446,0.631-15.968,1.261V1478.588z"/>
				<path style="fill:#FFFFFF;" d="M2105.201,1483.419c0,47.48-28.78,74.581-67.858,74.581c-39.915,0-65.126-30.463-65.126-72.058
					c0-43.49,27.312-74.162,67.227-74.162C2080.833,1411.779,2105.201,1443.082,2105.201,1483.419z M1999.53,1485.52
					c0,28.783,14.495,51.681,39.284,51.681c25.002,0,39.078-23.109,39.078-52.73c0-26.682-13.237-51.893-39.078-51.893
					C2013.184,1432.578,1999.53,1456.318,1999.53,1485.52z"/>
				<path style="fill:#FFFFFF;" d="M2159.217,1555.689l-45.798-141.599h28.152l19.328,64.286
					c5.461,17.858,10.083,34.456,13.864,51.684h0.421c3.782-16.808,8.822-34.035,14.495-51.262l20.59-64.708h27.52l-48.949,141.599
					H2159.217z"/>
				<path style="fill:#FFFFFF;" d="M2332.346,1492.873h-53.361v41.598h59.662v21.217h-85.504v-141.599h82.353v21.22h-56.512v36.555
					h53.361V1492.873z"/>
				<path style="fill:#FFFFFF;" d="M2361.354,1415.981c11.344-1.892,25.842-2.941,41.177-2.941c26.472,0,44.749,5.461,57.773,16.387
					c13.657,11.135,22.061,27.94,22.061,52.102c0,25.208-8.615,44.118-22.061,56.302c-14.073,12.815-36.555,19.328-64.074,19.328
					c-15.128,0-26.473-0.84-34.875-1.892V1415.981z M2387.196,1535.942c3.569,0.628,9.033,0.628,14.285,0.628
					c33.614,0.212,53.57-18.277,53.57-54.201c0.212-31.303-17.857-49.161-50.21-49.161c-8.193,0-14.076,0.63-17.645,1.471V1535.942z
					"/>
			</g>
		</g>
		<g>
			
				<linearGradient id="SVGID_00000143616612377245254850000001710151684691823771_" gradientUnits="userSpaceOnUse" x1="1765.884" y1="1771.3369" x2="861.7598" y2="2816.103">
				<stop  offset="0" style="stop-color:#09005D"/>
				<stop  offset="1" style="stop-color:#1A0F91"/>
			</linearGradient>
			<path style="fill:url(#SVGID_00000143616612377245254850000001710151684691823771_);" d="M740.052,1671.67
				c-1.564,253.053-5.853,1125.908,7.089,1435.004c1.371,32.747,24.213,58.704,52.231,59.355
				c138.576,3.223,646.494,9.042,872.861-5.475c47.15-3.025,83.998-48.299,84.149-103.547
				c0.723-265.598-0.101-1012.578-29.921-1354.328c-3.574-40.947-31.566-73.177-66.616-76.747
				c-151.093-15.388-661.642-50.883-857.131-33.087C767.458,1596.053,740.308,1630.291,740.052,1671.67z"/>
			<path style="fill:#91B3FA;" d="M803.013,1748.357c-4.389,204.297-17.708,883.927-6.476,1134.999
				c1.642,36.697,26.822,66.012,58.204,67.687c129.203,6.901,569.856,19.774,758.906-0.803
				c34.041-3.705,60.307-36.357,61.547-76.335c6.468-208.455,24.521-841.372,13.639-1089.633
				c-1.735-39.605-28.456-71.569-62.261-74.607c-139.857-12.571-608.312-40.445-769.033-27.761
				C827.368,1684.283,803.774,1712.988,803.013,1748.357z"/>
			<path style="fill:#91B3FA;" d="M1081.825,1632.868L1081.825,1632.868c0.116,7.763,5.384,14.087,12.016,14.394
				c32.742,1.514,124.976,5.8,166.203,7.979c8.128,0.428,14.374-8.206,12.692-17.526l-0.288-1.59
				c-1.145-6.361-5.737-11.09-11.274-11.599c-27.882-2.567-112.004-9.58-167.623-6.421
				C1086.868,1618.483,1081.708,1625.042,1081.825,1632.868z"/>
		</g>
		<g>
			<g>
				<g>
					<path style="fill:#FFFFFF;" d="M1360.336,2122.451c-72.193-66.57-185.077-61.993-251.644,10.198
						c-4.125,4.476-7.954,9.113-11.514,13.888c-4.787,6.424-14.239,6.791-19.264,0.549l-16.431-20.415
						c-3.589-4.455-3.522-10.779,0.032-15.26c3.37-4.245,6.908-8.404,10.641-12.451c85.141-92.334,229.538-98.187,321.869-13.046
						c6.998,6.447,13.466,13.257,19.448,20.348c4.478,5.309,3.685,13.272-1.813,17.519l-20.227,15.612
						c-5.116,3.951-12.407,3.178-16.582-1.756C1370.376,2132.353,1365.558,2127.267,1360.336,2122.451z"/>
					<path style="fill:#FFFFFF;" d="M1447.367,2028.066c-124.239-114.557-318.5-106.687-433.059,17.551
						c-0.034,0.037-0.066,0.071-0.099,0.106c-5.008,5.439-13.629,5.272-18.268-0.488l-16.116-20.025
						c0.196-6.067,0.322-9.975,0.516-16.043c133.452-141.729,357.262-149.915,500.715-17.638
						c12.522,11.547,23.964,23.825,34.422,36.662c4.252,5.226,3.214,12.971-2.119,17.086l-20.175,15.574
						c-5.137,3.966-12.543,3.229-16.653-1.792C1467.657,2048.211,1457.961,2037.834,1447.367,2028.066z"/>
					<path style="fill:#FFFFFF;" d="M1534.401,1933.68c-171.691-158.316-437.609-151.755-601.514,11.569
						c-5.146,5.126-13.541,4.813-18.097-0.848l-15.993-19.872c-3.883-4.824-3.561-11.875,0.849-16.22
						c182.778-180.269,477.752-187.001,668.445-11.166c17.911,16.52,34.197,34.135,49.015,52.585
						c4.222,5.258,3.19,13.003-2.15,17.125l-20.149,15.556c-5.257,4.055-12.71,3.064-16.874-2.103
						C1564.757,1963.953,1550.292,1948.337,1534.401,1933.68z"/>
				</g>
			</g>
			<path style="fill:#FFFFFF;" d="M1151.153,2215.5c-1.126,45.946,35.209,84.105,81.155,85.231
				c45.946,1.126,84.105-35.208,85.231-81.154c1.126-45.946-35.208-84.106-81.155-85.232
				C1190.439,2133.218,1152.279,2169.553,1151.153,2215.5z"/>
		</g>
		<g>
			
				<linearGradient id="SVGID_00000124850434181770178720000017035654191571414686_" gradientUnits="userSpaceOnUse" x1="-1767.8315" y1="569.7872" x2="-1628.0336" y2="-59.3041" gradientTransform="matrix(-1 0 0 1 -1380.5483 0)">
				<stop  offset="0" style="stop-color:#E1473D"/>
				<stop  offset="1" style="stop-color:#E9605A"/>
			</linearGradient>
			<path style="fill:url(#SVGID_00000124850434181770178720000017035654191571414686_);" d="M799.908,1998.238
				c0,0-27.631,13.44-32.712,28.879c-4.076,12.388-34.629,13.985-37.647,38.349c-1.558,12.579-10.867,22.653-23.396,24.573
				c-31.204,4.783-79.294,20.987-86.988,75.165c-5.873,41.354,15.208,57.034,37.333,62.462c16.25,3.986,27.049,19.792,23.762,36.198
				c-3.153,15.735,1.549,33.926,28.809,48.31c61.089,32.235,122.095-76.365,122.095-76.365l12.503-189.623L799.908,1998.238z"/>
			
				<linearGradient id="SVGID_00000117677725699559932970000006233046482401146549_" gradientUnits="userSpaceOnUse" x1="-2577.0229" y1="1652.1437" x2="-2425.6064" y2="1996.6506" gradientTransform="matrix(-0.9776 -0.2106 -0.2106 0.9776 -1130.1283 -113.5247)">
				<stop  offset="0" style="stop-color:#FEBBBA"/>
				<stop  offset="1" style="stop-color:#FF928E"/>
			</linearGradient>
			<path style="fill:url(#SVGID_00000117677725699559932970000006233046482401146549_);" d="M1132.31,1953.284
				c0,0-121.972,192.926-267.011,230.189c0,0,28.261,80.494,50.075,89.706c0,0,178.439-148.887,224.295-292.481L1132.31,1953.284z"
				/>
			
				<linearGradient id="SVGID_00000178911374636562848420000015953617472145739684_" gradientUnits="userSpaceOnUse" x1="-1929.4392" y1="3203.9045" x2="-1859.9392" y2="3203.9045" gradientTransform="matrix(-1 0 0 1 -1380.5483 0)">
				<stop  offset="0" style="stop-color:#4F52FF"/>
				<stop  offset="1" style="stop-color:#4042E2"/>
			</linearGradient>
			<path style="fill:url(#SVGID_00000178911374636562848420000015953617472145739684_);" d="M548.808,3187.236l-3.953,32.498
				c-0.75,6.165-5.604,11.04-11.774,11.745c-10.418,1.19-27.136,2.41-43.493,0.681c-7.18-0.759-11.841-8.029-9.654-14.91
				c3.987-12.545,11.282-31.378,21.8-42.46h36.05C544.449,3174.79,549.613,3180.62,548.808,3187.236z"/>
			
				<linearGradient id="SVGID_00000039839126469851088800000016399477464432946348_" gradientUnits="userSpaceOnUse" x1="-2223.113" y1="3477.9746" x2="-2123.0972" y2="2309.041" gradientTransform="matrix(-1 0 0 1 -1380.5483 0)">
				<stop  offset="0" style="stop-color:#FEBBBA"/>
				<stop  offset="1" style="stop-color:#FF928E"/>
			</linearGradient>
			<path style="fill:url(#SVGID_00000039839126469851088800000016399477464432946348_);" d="M831.165,2806.546l6.085,35.793
				c0,0-20.377,206.396-24.001,288.955c-0.568,12.944,2.78,25.735,9.574,36.767l35.431,57.537l-90.048-53.136l-1.793-10.989
				l14.741-20.268l-19.308-231.215c-1.134-13.583,1.668-27.205,8.073-39.237l18.626-34.991L831.165,2806.546z"/>
			
				<linearGradient id="SVGID_00000172438380945985232460000010581670853294535359_" gradientUnits="userSpaceOnUse" x1="-2252.3306" y1="3191.2156" x2="-2139.874" y2="3191.2156" gradientTransform="matrix(-1 0 0 1 -1380.5483 0)">
				<stop  offset="0" style="stop-color:#4F52FF"/>
				<stop  offset="1" style="stop-color:#4042E2"/>
			</linearGradient>
			<path style="fill:url(#SVGID_00000172438380945985232460000010581670853294535359_);" d="M864.184,3233.933h-28.736
				c-5.379,0-10.451-2.469-13.732-6.732c-8.958-11.64-27.519-34.35-36.394-34.943c-11.947-0.798-10.419,41.675-10.419,41.675h-6.697
				l-8.483-52.778c-2.134-13.28,4.47-26.435,16.394-32.656c0,0,2.731,20.197,17.54,29.131c14.808,8.934,60.261,40.927,60.261,40.927
				s5.567-0.794,11.679,0.311C874.664,3220.506,873.397,3233.933,864.184,3233.933z"/>
			
				<linearGradient id="SVGID_00000038384621656178652250000007635879928699509683_" gradientUnits="userSpaceOnUse" x1="-2021.9253" y1="3495.3677" x2="-1921.8833" y2="2326.1272" gradientTransform="matrix(-1 0 0 1 -1380.5483 0)">
				<stop  offset="0" style="stop-color:#FEBBBA"/>
				<stop  offset="1" style="stop-color:#FF928E"/>
			</linearGradient>
			<path style="fill:url(#SVGID_00000038384621656178652250000007635879928699509683_);" d="M707.829,2823.546
				c0,0-119.371,226.436-138.347,278.135c-18.976,51.699-25.623,94.827-25.877,98.911c-0.398,6.382-8.335,12.503-30.215,12.503
				c-11.291,0-16.821-4.526-19.529-8.907c-2.31-3.738-2.43-8.415-0.483-12.354c6.905-13.975,28.818-58.633,36.934-78.888
				c9.69-24.184,30.532-133.78,41.963-171.885s24.352-79.44,74.13-117.514C646.406,2823.546,680.577,2790.078,707.829,2823.546z"/>
			
				<linearGradient id="SVGID_00000126292559298820048960000006932260908498301621_" gradientUnits="userSpaceOnUse" x1="1388.6458" y1="1391.3794" x2="1001.8813" y2="2039.3365">
				<stop  offset="0" style="stop-color:#FF928E"/>
				<stop  offset="1" style="stop-color:#FE7062"/>
			</linearGradient>
			<path style="fill:url(#SVGID_00000126292559298820048960000006932260908498301621_);" d="M783.238,2452.52
				c30.792-130.48-47.214-204.278-47.214-204.278c49.22-47.246,138.9-68.745,138.9-68.745s85.573,62.562,75.422,111.531
				c-5.95,28.701-60.15,171.911-60.15,171.911S840.077,2486.658,783.238,2452.52z"/>
			
				<linearGradient id="SVGID_00000104669079850957345770000000853679976004740491_" gradientUnits="userSpaceOnUse" x1="1048.3329" y1="2473.9109" x2="419.2424" y2="2928.2549">
				<stop  offset="0" style="stop-color:#4F52FF"/>
				<stop  offset="1" style="stop-color:#4042E2"/>
			</linearGradient>
			<path style="fill:url(#SVGID_00000104669079850957345770000000853679976004740491_);" d="M714.967,2517.117
				c12.531-37.752,68.271-64.597,68.271-64.597c56.839,34.138,106.958,10.419,106.958,10.419s11.24,42.961,3.482,82.887
				c-7.757,39.925-56.428,296.514-56.428,296.514c-76.689,15.539-194.634-15.634-194.634-15.634
				C691.463,2739.98,702.435,2554.869,714.967,2517.117z"/>
			
				<linearGradient id="SVGID_00000156567229185454081690000011628515396315472777_" gradientUnits="userSpaceOnUse" x1="-2234.0813" y1="2325.7563" x2="-2215.2937" y2="2188.3108" gradientTransform="matrix(-1 0 0 1 -1380.5483 0)">
				<stop  offset="0" style="stop-color:#FEBBBA"/>
				<stop  offset="1" style="stop-color:#FF928E"/>
			</linearGradient>
			<path style="fill:url(#SVGID_00000156567229185454081690000011628515396315472777_);" d="M818.98,2093.272l-25.035,112.451
				c-2.397,9.905,6.633,8.284,16.647,6.396c16.4-3.092,37.537-9.46,44.602-22.221c0.719-1.299,1.078-2.767,1.281-4.238
				l10.755-77.977c0.853-6.186-2.491-12.191-8.2-14.722l-20.755-9.203C830.286,2080.216,821.036,2084.776,818.98,2093.272z"/>
			
				<linearGradient id="SVGID_00000170958677400496744630000011292038472643120307_" gradientUnits="userSpaceOnUse" x1="-2156.6484" y1="2392.7344" x2="-2031.8439" y2="2392.7344" gradientTransform="matrix(-1 0 0 1 -1380.5483 0)">
				<stop  offset="0" style="stop-color:#FEBBBA"/>
				<stop  offset="1" style="stop-color:#FF928E"/>
			</linearGradient>
			<path style="fill:url(#SVGID_00000170958677400496744630000011292038472643120307_);" d="M736.024,2248.242
				c0,0-174.732,125.011-22.347,256.372c0,0,5.81,6.574,17.241,9.99c5.771,1.725,22.842,14.64,31.497,21.375
				c2.782,2.165,6.803,1.428,8.673-1.56c1.466-2.341,1.638-5.268,0.457-7.765l-21.632-45.743
				c-6.007-5.606-15.202-6.004-21.671-0.938c-4.127,3.232-10.172,1.878-12.482-2.827c-11.78-23.992-34.023-94.555,57.018-174.288
				c3.422-2.997,4.288-7.955,2.188-11.99C768.569,2278.581,753.94,2254.179,736.024,2248.242z"/>
			<g>
				
					<linearGradient id="SVGID_00000025440175775255088930000004724431875966171051_" gradientUnits="userSpaceOnUse" x1="-2438.7275" y1="1820.3973" x2="-2274.7976" y2="1528.6573" gradientTransform="matrix(-0.9809 -0.1943 -0.1943 0.9809 -1151.4583 -99.2406)">
					<stop  offset="0" style="stop-color:#FEBBBA"/>
					<stop  offset="1" style="stop-color:#FF928E"/>
				</linearGradient>
				<path style="fill:url(#SVGID_00000025440175775255088930000004724431875966171051_);" d="M866.932,1990.761
					c0,0,26.653,18.042,38.105,63.986c11.453,45.945-7.159,62.426-26.237,61.416c-19.078-1.01-46.739-6.91-70.706-39.871
					C784.127,2043.331,832.006,1968.715,866.932,1990.761z"/>
				
					<linearGradient id="SVGID_00000011004054012719050740000001886089163792407466_" gradientUnits="userSpaceOnUse" x1="-2141.7839" y1="711.5842" x2="-2001.9786" y2="82.4603" gradientTransform="matrix(-0.9809 -0.1943 -0.1943 0.9809 -1151.4583 -99.2406)">
					<stop  offset="0" style="stop-color:#E1473D"/>
					<stop  offset="1" style="stop-color:#E9605A"/>
				</linearGradient>
				<path style="fill:url(#SVGID_00000011004054012719050740000001886089163792407466_);" d="M832.263,2057.761
					c0,0-9.766-65.835,44.894-55.765l11.052,11.507c0,0,26.754-30.13-2.853-52.906c-29.608-22.776-70.694-16.943-93.425,24.521
					c-22.731,41.464-30.981,70.6-11.928,96.365s33.384,3.667,33.384,3.667s-8.738-22.3-1.488-31.869
					c7.25-9.569,16.604,5.565,16.604,5.565L832.263,2057.761z"/>
				
					<linearGradient id="SVGID_00000096738165549852759190000005441624672318996668_" gradientUnits="userSpaceOnUse" x1="-2403.8337" y1="1840.0068" x2="-2239.9038" y2="1548.267" gradientTransform="matrix(-0.9809 -0.1943 -0.1943 0.9809 -1151.4583 -99.2406)">
					<stop  offset="0" style="stop-color:#FEBBBA"/>
					<stop  offset="1" style="stop-color:#FF928E"/>
				</linearGradient>
				<path style="fill:url(#SVGID_00000096738165549852759190000005441624672318996668_);" d="M824.792,2063.399
					c0,0-4.821-33.872-22.12-24.189c-17.299,9.683,6.235,31.641,15.67,39.112L824.792,2063.399z"/>
			</g>
			<g>
				
					<linearGradient id="SVGID_00000131340044905944562070000003032074985320608425_" gradientUnits="userSpaceOnUse" x1="-2606.9458" y1="1665.2955" x2="-2455.5291" y2="2009.8025" gradientTransform="matrix(-0.9776 -0.2106 -0.2106 0.9776 -1130.1283 -113.5247)">
					<stop  offset="0" style="stop-color:#FEBBBA"/>
					<stop  offset="1" style="stop-color:#FF928E"/>
				</linearGradient>
				<path style="fill:url(#SVGID_00000131340044905944562070000003032074985320608425_);" d="M1131.472,1993.001
					c0.37,3.98-14.429,6.73-19.139-10.236c1.294-7.366,3.594-39.621,9.242-44.632c30.079-26.689,83.716-56.713,83.716-56.713
					c5.999,9.159-1.868,15.191-1.868,15.191l-26.775,18.069c2.793,9.251,6.869,17.429,7.33,27.99
					c0.349,7.998-2.605,15.828-7.914,21.895c-5.328,6.089-12.502,13.95-18.968,19.918
					C1144.856,1995.78,1131.472,1993.001,1131.472,1993.001z"/>
				
					<linearGradient id="SVGID_00000021105289685096716800000004718197036981223069_" gradientUnits="userSpaceOnUse" x1="1343.7042" y1="1952.3026" x2="1384.4764" y2="1952.3026" gradientTransform="matrix(1 0 0 1 -215.115 0)">
					<stop  offset="0" style="stop-color:#FEBBBA"/>
					<stop  offset="1" style="stop-color:#FF928E"/>
				</linearGradient>
				<path style="fill:url(#SVGID_00000021105289685096716800000004718197036981223069_);" d="M1146.015,1979.852l-4.092-1.684
					c0.544-1.324,13.393-32.546,19.607-39.041c2.362-2.464,3.502-4.574,3.396-6.276c-0.053-0.921-0.509-1.83-1.374-2.756
					l-21.665,11.586l-9.569,14.983l-3.73-2.385l10.189-15.959l25.376-13.568l1.146,0.932c2.566,2.099,3.893,4.352,4.045,6.895
					c0.187,3.028-1.321,6.17-4.612,9.61C1160.051,1947.081,1149.634,1971.034,1146.015,1979.852z"/>
			</g>
		</g>
		<g>
			<g>
				<path style="fill:#BDD0FB;" d="M2932.69,1868.75c-22.915,5.046-46.262,15.206-55.943,29.004
					c-43.67,62.242,9.222,159.255,25.269,221.823c27.566,107.487,30.871,222.115-3.029,328.558
					c-36.734,115.335-62.923,229.826-58.727,351.988c2.161,62.935,14.328,130.632,50.274,184.034
					c67.931,100.893,265.232,66.799,311.333-35.275c36.767-81.407,33.11-173.979,18.793-260.011
					c-24.084-144.726-71.341-284.34-96.344-428.851c-19.12-110.506,11.284-324.346-111.633-383.277
					C2990.204,1865.966,2957,1863.397,2932.69,1868.75z"/>
				<path style="fill:#7D97F4;" d="M3002.12,3216.287c-0.507,0-1.023-0.075-1.531-0.239c-2.642-0.847-4.101-3.673-3.254-6.315
					c114.548-357.825,93.596-690.77,55.847-907.07c-40.924-234.49-109.855-386.26-110.549-387.768
					c-1.158-2.521-0.052-5.504,2.469-6.662c2.538-1.158,5.504-0.046,6.661,2.469c0.697,1.514,70.086,154.224,111.255,389.9
					c24.177,138.385,34.06,277.952,29.38,414.813c-5.854,171.108-34.619,338.448-85.495,497.378
					C3006.221,3214.927,3004.245,3216.287,3002.12,3216.287z"/>
			</g>
			<g>
				<path style="fill:#91B3FA;" d="M2918.456,2925.655c-8.49-61.073-49.66-121.854-78.62-180.503
					c-15.312-31.009-27.537-62.666-32.068-97.142c-4.506-34.28,0.357-74.245-23.509-102.641
					c-48.086-57.205-107.126-7.131-131.34,53.881c-28.099,70.802-12.582,168.247-8.278,245.553
					c2.594,46.604,0.287,95.883,8.013,141.864c12.799,76.173,44.572,122.257,89.962,146.269
					c43.536,23.032,96.924,14.629,131.347-20.596C2905.06,3080.518,2932.152,3024.18,2918.456,2925.655z"/>
				<path style="fill:#7D97F4;" d="M2842.961,3245.736c-1.857,0-3.643-1.033-4.513-2.813
					c-1.652-3.372-164.829-340.849-134.275-659.64c0.265-2.76,2.714-4.807,5.481-4.52c2.76,0.265,4.785,2.718,4.52,5.481
					c-30.28,315.913,131.655,650.912,133.294,654.257c1.223,2.492,0.19,5.5-2.299,6.72
					C2844.456,3245.573,2843.704,3245.736,2842.961,3245.736z"/>
			</g>
		</g>
	</g>
</g>
</svg>
